<svg xmlns="http://www.w3.org/2000/svg" width="559.371" height="188.976" viewBox="0 0 419.528 141.732"><g data-name="Layer"><path d="M403 98.188h-56.897V40.895H403z" fill="#fec018"/><clipPath id="a"><path transform="matrix(1 0 0 -1 0 141.732)" d="M0 141.732h419.528V0H0z"/></clipPath><g clip-path="url(#a)" fill="#231f20"><path d="M42.711 83.069a6.161 6.161 0 0 1-2.234 2.034 8.246 8.246 0 0 1-2.864.892c-1 .127-1.915.19-2.716.19h-7.613V72.59h7.613c.855 0 1.775.089 2.806.27a8.959 8.959 0 0 1 2.856 1.003 6.217 6.217 0 0 1 2.195 2.074c.577.897.871 2.06.871 3.454 0 1.545-.308 2.779-.914 3.677m-15.427-29.81h6.944c.808 0 1.644.089 2.484.268.85.183 1.626.495 2.3.937a5.13 5.13 0 0 1 1.672 1.824c.421.765.635 1.735.635 2.874 0 1.088-.214 2.032-.635 2.796-.42.757-.966 1.374-1.626 1.82-.653.446-1.413.769-2.263.975-.832.205-1.695.309-2.567.309h-6.944zm25.73 33.418c.894-1.728 1.34-3.88 1.34-6.395 0-1.924-.349-3.613-1.044-5.03-.696-1.413-1.56-2.608-2.573-3.55-1.002-.933-2.09-1.664-3.218-2.171-1.144-.508-2.165-.862-3.026-1.054l-1.338-.297 1.331-.333c.558-.142 1.267-.457 2.112-.936.83-.473 1.628-1.141 2.373-1.978.744-.841 1.406-1.864 1.96-3.05.546-1.167.822-2.534.822-4.061 0-1.635-.294-3.236-.873-4.76-.572-1.5-1.52-2.848-2.813-4.001-1.293-1.151-3.01-2.088-5.095-2.795-2.088-.706-4.679-1.06-7.706-1.06H17v48.959h18.266c2.943 0 5.634-.261 8.002-.776 2.353-.51 4.37-1.333 5.985-2.44a11.508 11.508 0 0 0 3.761-4.272M76.022 53.497h7.468c2.223 0 4.003.653 5.296 1.94 1.289 1.293 1.942 3.05 1.942 5.229 0 2.02-.65 3.724-1.937 5.064-1.29 1.345-3.078 2.023-5.301 2.023h-7.468zm16.38 40.669h11.28L92.767 74.47l.435-.24c2.504-1.394 4.468-3.285 5.846-5.622 1.37-2.334 2.065-5.107 2.065-8.248 0-2.072-.355-4.052-1.057-5.887a13.101 13.101 0 0 0-3.175-4.797c-1.414-1.367-3.21-2.464-5.33-3.262-2.132-.8-4.643-1.205-7.466-1.205H66.01v48.956h10.012V75.814h7.096zM114.497 94.165h10.309V45.209h-10.309zM182.652 67.677h-18.245v8.14h8.84v7.03l-.192.152a12.959 12.959 0 0 1-4.592 2.374c-1.686.482-3.57.73-5.606.73-2.2 0-4.27-.389-6.14-1.164a14.607 14.607 0 0 1-4.929-3.29c-1.387-1.42-2.484-3.152-3.252-5.155-.77-1.996-1.159-4.246-1.159-6.696 0-2.242.336-4.385 1.001-6.374.665-1.998 1.655-3.764 2.94-5.262 1.292-1.492 2.885-2.694 4.736-3.575 1.855-.872 3.993-1.317 6.352-1.317 2.881 0 5.348.628 7.346 1.877 1.815 1.133 3.517 2.591 5.051 4.337l6.928-6.587c-2.138-2.749-4.845-4.933-8.05-6.503-3.334-1.63-7.278-2.455-11.723-2.455-3.757 0-7.22.667-10.286 1.981-3.069 1.315-5.763 3.152-8 5.465-2.247 2.317-4 5.073-5.215 8.188-1.218 3.125-1.837 6.563-1.837 10.225 0 3.772.584 7.267 1.726 10.386 1.143 3.116 2.836 5.825 5.024 8.062 2.183 2.234 4.881 3.996 8.025 5.242 3.153 1.245 6.781 1.876 10.788 1.876 4.36 0 8.3-.61 11.705-1.807 3.318-1.173 6.267-2.84 8.764-4.963zM215.029 55.25l6.518 19.693h-13.132zm9.109 27.457 3.823 11.458h10.846L221.33 45.209h-12.48l-17.85 48.956h10.997l3.815-11.458zM278.527 81.056c-2.78 2.702-6.777 4.07-11.879 4.07h-7.394V54.172h7.394c2.741 0 5.143.375 7.136 1.117 2.016.749 3.706 1.822 5.02 3.193 1.311 1.363 2.31 3.037 2.965 4.982.632 1.916.955 4.076.955 6.409 0 4.718-1.41 8.48-4.197 11.183m12.978-.486c1.311-2.997 1.978-6.57 1.978-10.623 0-4.248-.655-7.986-1.942-11.115-1.287-3.103-3.109-5.688-5.412-7.675-2.304-1.991-5.093-3.494-8.28-4.47-3.209-.978-6.752-1.477-10.528-1.477H248.95v48.954h18.3c3.777 0 7.313-.505 10.522-1.515 3.183-.994 5.97-2.522 8.28-4.538 2.306-2.015 4.14-4.55 5.454-7.541M399.833 64.53H380.51V45.21H370.2V64.53h-19.321v10.31h19.32v19.325h10.31V74.842h19.324zM315.98 85.206V73.42h15.299l2.267-8.588H315.98v-10.74h20.392l2.275-8.885H305.67v48.956h30.703l2.275-8.958z"/></g></g></svg>