<?xml version="1.0" encoding="UTF-8"?>
<svg id="Layer_1" data-name="Layer 1" xmlns="http://www.w3.org/2000/svg" viewBox="0 0 400 100">
  <defs>
    <style>
      .cls-1 {
        fill: red;
      }
    </style>
  </defs>
  <path class="cls-1" d="M42.93,83.06c-11.95,0-22.44-3.95-29.06-11.59-4.87-5.61-7.63-13.06-7.54-22.44.09-11.22,4.69-19.59,11.96-25.2,6.9-5.43,15.63-6.71,25.47-6.9,6.35.09,12.78,1.01,18.94,2.76l-.09,7.08h-.64c-5.15-2.94-11.59-3.95-17.66-3.95-5.52,0-10.39,2.21-14.16,5.98-4.97,5.15-7.54,13.15-7.45,21.15-.09,6.25,1.29,13.15,4.6,18.48,3.31,5.24,8.64,8.83,16,8.83,1.47,0,3.59-.09,4.97-.46l.18-21.61h-12.42l.09-5.79h27.5l-.18,31.08c-6.81,1.84-13.89,2.48-20.51,2.57Z"/>
  <path class="cls-1" d="M94.52,27.79l-.18,17.75h23.63l-.09,5.79h-23.63l-.18,25.01h32.92v5.89h-48.46l.37-47.27c0-12.05,7.72-17.11,19.5-17.11h29.06v5.89h-30.44c-2.67,0-2.48,1.75-2.48,4.05Z"/>
  <path class="cls-1" d="M151.72,27.79l-.18,17.75h23.63l-.09,5.79h-23.63l-.18,25.01h32.92v5.89h-48.46l.37-47.27c0-12.05,7.72-17.11,19.5-17.11h29.06v5.89h-30.44c-2.67,0-2.48,1.75-2.48,4.05Z"/>
  <path d="M223.45,83.06c-16.09-.18-32.1-8.55-35.22-28.32-3.49-21.98,11.77-37.52,35.22-37.7,6.53-.09,12.69.64,18.48,2.76l-.09,6.99h-.64c-4.32-2.67-9.29-3.95-15.08-3.95-9.01,0-14.71,4.41-18.12,10.85-2.48,4.78-3.68,10.67-3.77,16.83-.18,4.97.64,10.12,2.67,14.44,3.13,7.17,9.2,12.32,18.94,12.32,6.07,0,11.13-1.47,15.27-4.32h.64l.09,7.08c-5.06,2.3-12.05,2.94-18.39,3.03Z"/>
  <path d="M265.48,27.79l-.18,17.75h23.63l-.09,5.79h-23.63l-.18,25.01h32.92v5.89h-48.46l.37-47.27c0-12.05,7.72-17.11,19.5-17.11h29.06v5.89h-30.44c-2.67,0-2.48,1.75-2.48,4.05Z"/>
  <path d="M346.5,82.23h-22.35c-11.59,0-19.31-4.14-19.22-17.11l.37-47.27h15.54l-.46,54.44c.09,2.67-.37,4.05,2.48,4.05h23.63v5.89Z"/>
  <path d="M393.68,82.23h-22.35c-11.59,0-19.31-4.14-19.22-17.11l.37-47.27h15.54l-.46,54.44c.09,2.67-.37,4.05,2.48,4.05h23.63v5.89Z"/>
</svg>